<?xml version="1.0" encoding="iso-8859-1"?>
<!DOCTYPE svg PUBLIC "-//W3C//DTD SVG 1.1//EN" "http://www.w3.org/Graphics/SVG/1.1/DTD/svg11.dtd">
<svg 
 version="1.1" xmlns="http://www.w3.org/2000/svg" xmlns:xlink="http://www.w3.org/1999/xlink" x="0px" y="0px" width="512px"
	 height="512px" viewBox="0 0 512 512" enable-background="new 0 0 512 512" xml:space="preserve"
><g id="2020da7681f0d538108a21c602014a00"><g></g><g fill="#757575"><path display="inline" d="M329.307,286.365L511.5,256l-182.193-30.366L436.663,75.333L286.365,182.691L256,0.5l-30.365,182.191
		L75.337,75.333l107.356,150.302L0.5,256l182.193,30.365L75.337,436.667l150.298-107.36L256,511.5l30.365-182.193l150.298,107.36
		L329.307,286.365z M381.717,130.281l-66.441,93.016l-22.776-3.797l-3.796-22.778L381.717,130.281z M130.284,130.281l93.014,66.441
		L219.5,219.5l-22.776,3.797L130.284,130.281z M130.288,381.717l66.437-93.014l22.776,3.796l3.797,22.776L130.288,381.717z
		 M292.499,292.499l22.776-3.796l66.437,93.014l-93.009-66.441L292.499,292.499z"></path></g></g></svg>