<?xml version="1.0" encoding="UTF-8" standalone="no"?>
<svg width="60px" height="60px" viewBox="0 0 60 60" version="1.1" xmlns="http://www.w3.org/2000/svg" xmlns:xlink="http://www.w3.org/1999/xlink" xmlns:sketch="http://www.bohemiancoding.com/sketch/ns">
    <!-- Generator: Sketch 3.2.2 (9983) - http://www.bohemiancoding.com/sketch -->
    <title>Toxicbag</title>
    <desc>Created with Sketch.</desc>
    <defs></defs>
    <g id="stroked" stroke="none" stroke-width="1" fill="none" fill-rule="evenodd" sketch:type="MSPage">
        <g id="Science" sketch:type="MSLayerGroup" transform="translate(-20.000000, -987.000000)" stroke="#00a699" stroke-width="2">
            <g id="Toxic-bag" transform="translate(23.000000, 993.000000)" sketch:type="MSShapeGroup">
                <path d="M45.0848331,7 L50.0019162,7 C52.2099969,7 54,8.7837733 54,10.9978926 L54,38.0021074 C54,40.2100825 52.2033234,42 50.0073214,42 L3.99267864,42 C1.78758312,42 0,40.2162267 0,38.0021074 L0,10.9978926 C0,8.78991749 1.78412392,7 3.99782371,7 L9.1996814,7 M16.6774099,7 L37.1962482,7" id="Rectangle-96"></path>
                <rect id="Rectangle-97" x="8" y="5" width="10" height="6"></rect>
                <rect id="Rectangle-97" x="9" y="40" width="7" height="6"></rect>
                <rect id="Rectangle-97" x="36" y="5" width="10" height="6"></rect>
                <rect id="Rectangle-97" x="38" y="40" width="7" height="6"></rect>
                <rect id="Rectangle-101" x="20" y="0" width="14" height="9"></rect>
                <g id="Group" transform="translate(20.000000, 19.000000)" stroke-linecap="square">
                    <circle id="Oval-182" cx="7" cy="7" r="7"></circle>
                    <path d="M7,6 L7,5" id="Line"></path>
                    <path d="M7,7 L4.83493649,8.25" id="Line"></path>
                    <path d="M9,7 L6.83493649,8.25" id="Line" transform="translate(7.917468, 7.625000) scale(-1, 1) translate(-7.917468, -7.625000) "></path>
                </g>
            </g>
        </g>
    </g>
</svg>