<?xml version="1.0" encoding="iso-8859-1"?>
<!DOCTYPE svg PUBLIC "-//W3C//DTD SVG 1.1//EN" "http://www.w3.org/Graphics/SVG/1.1/DTD/svg11.dtd">
<svg 
 version="1.1" xmlns="http://www.w3.org/2000/svg" xmlns:xlink="http://www.w3.org/1999/xlink" x="0px" y="0px" width="512px"
	 height="512px" viewBox="0 0 512 512" style="enable-background:new 0 0 512 512;" xml:space="preserve"
><g id="5151e0c8492e5103c096af88a5037812"><g></g><g fill="#383838"><path d="M405.042,0.5H106.958c-35.131,0-63.875,28.744-63.875,63.875v298.083v85.167c0,35.131,28.744,63.875,63.875,63.875
			h298.083c35.131,0,63.875-28.744,63.875-63.875v-85.167V64.375C468.917,29.244,440.173,0.5,405.042,0.5z M64.375,64.375
			c0-23.481,19.104-42.583,42.583-42.583h298.083c23.479,0,42.583,19.103,42.583,42.583v298.083
			c0,23.479-19.104,42.584-42.583,42.584H106.958c-23.479,0-42.583-19.104-42.583-42.584V64.375z M181.806,234.363
			c-29.615,0-53.556,23.865-53.556,53.324c0,29.692,23.94,53.479,53.556,53.479c29.461,0,53.402-23.787,53.402-53.479v-24.951
			h41.665v24.951c0,29.692,23.861,53.479,53.399,53.479c29.617,0,53.479-23.787,53.479-53.479c0-29.459-23.861-53.324-53.479-53.324
			h-25.03v-41.818h25.03c29.617,0,53.479-23.861,53.479-53.479c0-29.459-23.861-53.4-53.479-53.4
			c-29.538,0-53.558,23.941-53.399,53.4v25.184h-41.665v-25.184c0-29.459-23.941-53.4-53.402-53.4
			c-29.615,0-53.556,23.941-53.556,53.4c0,29.617,24.097,53.711,53.556,53.479h25.03v41.818H181.806z M206.836,287.688
			c0,13.994-11.193,25.185-24.954,25.185c-13.989,0-25.184-11.19-25.184-25.185c0-13.76,11.194-24.951,25.184-24.951h24.954V287.688
			z M305.241,138.992c0-13.761,11.194-24.951,24.951-24.951c13.993,0,25.188,11.19,25.188,24.951
			c0,13.989-11.195,25.184-25.188,25.184h-24.951V138.992z M305.241,262.736h24.951c13.993,0,25.188,11.191,25.188,24.951
			c0,13.994-11.195,25.185-25.188,25.185c-13.757,0-24.951-11.19-24.951-25.185V262.736z M235.208,192.624h41.743v41.739h-41.743
			V192.624z M181.882,164.176c-13.989,0-25.184-11.195-25.184-25.184c0-13.761,11.194-24.951,25.184-24.951
			c13.761,0,24.954,11.19,24.954,24.951v25.184H181.882z"></path></g></g></svg>